<?xml version="1.0" encoding="UTF-8" standalone="no"?><svg xmlns="http://www.w3.org/2000/svg" xmlns:xlink="http://www.w3.org/1999/xlink" contentScriptType="application/ecmascript" contentStyleType="text/css" height="428px" preserveAspectRatio="none" style="width:1445px;height:428px;" version="1.1" viewBox="0 0 1445 428" width="1445px" zoomAndPan="magnify"><defs><linearGradient id="g2mlu3lhj4kxh0" x1="50%" x2="50%" y1="0%" y2="100%"><stop offset="0%" stop-color="#FFFFFF"/><stop offset="100%" stop-color="#FFC0CB"/></linearGradient><filter height="300%" id="f2mlu3lhj4kxh" width="300%" x="-1" y="-1"><feGaussianBlur result="blurOut" stdDeviation="2.0"/><feColorMatrix in="blurOut" result="blurOut2" type="matrix" values="0 0 0 0 0 0 0 0 0 0 0 0 0 0 0 0 0 0 .4 0"/><feOffset dx="4.0" dy="4.0" in="blurOut2" result="blurOut3"/><feBlend in="SourceGraphic" in2="blurOut3" mode="normal"/></filter><linearGradient id="g2mlu3lhj4kxh1" x1="50%" x2="50%" y1="0%" y2="100%"><stop offset="0%" stop-color="#FFFFFF"/><stop offset="100%" stop-color="#A52A2A"/></linearGradient><linearGradient id="g2mlu3lhj4kxh2" x1="50%" x2="50%" y1="0%" y2="100%"><stop offset="0%" stop-color="#FFFFFF"/><stop offset="100%" stop-color="#FFFF00"/></linearGradient><linearGradient id="g2mlu3lhj4kxh3" x1="50%" x2="50%" y1="0%" y2="100%"><stop offset="0%" stop-color="#FFFFFF"/><stop offset="100%" stop-color="#FF0000"/></linearGradient><linearGradient id="g2mlu3lhj4kxh4" x1="50%" x2="50%" y1="0%" y2="100%"><stop offset="0%" stop-color="#FFFFFF"/><stop offset="100%" stop-color="#008000"/></linearGradient><linearGradient id="g2mlu3lhj4kxh5" x1="50%" x2="50%" y1="0%" y2="100%"><stop offset="0%" stop-color="#FFFFFF"/><stop offset="100%" stop-color="#0000FF"/></linearGradient></defs><g><rect fill="url(#g2mlu3lhj4kxh0)" filter="url(#f2mlu3lhj4kxh)" height="33.9688" style="stroke: #A80036; stroke-width: 1.5;" width="101" x="642.5" y="8"/><text fill="#000000" font-family="sans-serif" font-size="12" lengthAdjust="spacingAndGlyphs" textLength="87" x="649.5" y="21.1387">SoundSection</text><line style="stroke: #A80036; stroke-width: 1.5;" x1="643.5" x2="742.5" y1="25.9688" y2="25.9688"/><rect fill="url(#g2mlu3lhj4kxh1)" filter="url(#f2mlu3lhj4kxh)" height="33.9688" style="stroke: #A80036; stroke-width: 1.5;" width="53" x="330.5" y="102"/><text fill="#000000" font-family="sans-serif" font-size="12" lengthAdjust="spacingAndGlyphs" textLength="39" x="337.5" y="115.1387">Global</text><line style="stroke: #A80036; stroke-width: 1.5;" x1="331.5" x2="382.5" y1="119.9688" y2="119.9688"/><rect fill="url(#g2mlu3lhj4kxh2)" filter="url(#f2mlu3lhj4kxh)" height="33.9688" style="stroke: #A80036; stroke-width: 1.5;" width="56" x="529" y="102"/><text fill="#000000" font-family="sans-serif" font-size="12" lengthAdjust="spacingAndGlyphs" textLength="42" x="536" y="115.1387">Voice1</text><line style="stroke: #A80036; stroke-width: 1.5;" x1="530" x2="584" y1="119.9688" y2="119.9688"/><rect fill="url(#g2mlu3lhj4kxh2)" filter="url(#f2mlu3lhj4kxh)" height="33.9688" style="stroke: #A80036; stroke-width: 1.5;" width="56" x="620" y="102"/><text fill="#000000" font-family="sans-serif" font-size="12" lengthAdjust="spacingAndGlyphs" textLength="42" x="627" y="115.1387">Voice2</text><line style="stroke: #A80036; stroke-width: 1.5;" x1="621" x2="675" y1="119.9688" y2="119.9688"/><rect fill="url(#g2mlu3lhj4kxh2)" filter="url(#f2mlu3lhj4kxh)" height="33.9688" style="stroke: #A80036; stroke-width: 1.5;" width="56" x="711" y="102"/><text fill="#000000" font-family="sans-serif" font-size="12" lengthAdjust="spacingAndGlyphs" textLength="42" x="718" y="115.1387">Voice3</text><line style="stroke: #A80036; stroke-width: 1.5;" x1="712" x2="766" y1="119.9688" y2="119.9688"/><rect fill="url(#g2mlu3lhj4kxh2)" filter="url(#f2mlu3lhj4kxh)" height="33.9688" style="stroke: #A80036; stroke-width: 1.5;" width="56" x="802" y="102"/><text fill="#000000" font-family="sans-serif" font-size="12" lengthAdjust="spacingAndGlyphs" textLength="42" x="809" y="115.1387">Voice4</text><line style="stroke: #A80036; stroke-width: 1.5;" x1="803" x2="857" y1="119.9688" y2="119.9688"/><rect fill="url(#g2mlu3lhj4kxh2)" filter="url(#f2mlu3lhj4kxh)" height="33.9688" style="stroke: #A80036; stroke-width: 1.5;" width="56" x="893" y="102"/><text fill="#000000" font-family="sans-serif" font-size="12" lengthAdjust="spacingAndGlyphs" textLength="42" x="900" y="115.1387">Voice5</text><line style="stroke: #A80036; stroke-width: 1.5;" x1="894" x2="948" y1="119.9688" y2="119.9688"/><rect fill="url(#g2mlu3lhj4kxh3)" filter="url(#f2mlu3lhj4kxh)" height="33.9688" style="stroke: #A80036; stroke-width: 1.5;" width="105" x="595.5" y="196"/><text fill="#000000" font-family="sans-serif" font-size="12" lengthAdjust="spacingAndGlyphs" textLength="91" x="602.5" y="209.1387">SoundEngine1</text><line style="stroke: #A80036; stroke-width: 1.5;" x1="596.5" x2="699.5" y1="213.9688" y2="213.9688"/><rect fill="url(#g2mlu3lhj4kxh3)" filter="url(#f2mlu3lhj4kxh)" height="33.9688" style="stroke: #A80036; stroke-width: 1.5;" width="105" x="868.5" y="196"/><text fill="#000000" font-family="sans-serif" font-size="12" lengthAdjust="spacingAndGlyphs" textLength="91" x="875.5" y="209.1387">SoundEngine2</text><line style="stroke: #A80036; stroke-width: 1.5;" x1="869.5" x2="972.5" y1="213.9688" y2="213.9688"/><rect fill="url(#g2mlu3lhj4kxh4)" filter="url(#f2mlu3lhj4kxh)" height="33.9688" style="stroke: #A80036; stroke-width: 1.5;" width="129" x="421.5" y="290"/><text fill="#000000" font-family="sans-serif" font-size="12" lengthAdjust="spacingAndGlyphs" textLength="115" x="428.5" y="303.1387">Component__Filter</text><line style="stroke: #A80036; stroke-width: 1.5;" x1="422.5" x2="549.5" y1="307.9688" y2="307.9688"/><rect fill="url(#g2mlu3lhj4kxh4)" filter="url(#f2mlu3lhj4kxh)" height="33.9688" style="stroke: #A80036; stroke-width: 1.5;" width="125" x="585.5" y="290"/><text fill="#000000" font-family="sans-serif" font-size="12" lengthAdjust="spacingAndGlyphs" textLength="111" x="592.5" y="303.1387">Component__Amp</text><line style="stroke: #A80036; stroke-width: 1.5;" x1="586.5" x2="709.5" y1="307.9688" y2="307.9688"/><rect fill="url(#g2mlu3lhj4kxh4)" filter="url(#f2mlu3lhj4kxh)" height="33.9688" style="stroke: #A80036; stroke-width: 1.5;" width="121" x="779.5" y="290"/><text fill="#000000" font-family="sans-serif" font-size="12" lengthAdjust="spacingAndGlyphs" textLength="107" x="786.5" y="303.1387">Component__Osc</text><line style="stroke: #A80036; stroke-width: 1.5;" x1="780.5" x2="899.5" y1="307.9688" y2="307.9688"/><rect fill="url(#g2mlu3lhj4kxh4)" filter="url(#f2mlu3lhj4kxh)" height="33.9688" style="stroke: #A80036; stroke-width: 1.5;" width="116" x="1131" y="290"/><text fill="#000000" font-family="sans-serif" font-size="12" lengthAdjust="spacingAndGlyphs" textLength="102" x="1138" y="303.1387">Component__Fm</text><line style="stroke: #A80036; stroke-width: 1.5;" x1="1132" x2="1246" y1="307.9688" y2="307.9688"/><rect fill="url(#g2mlu3lhj4kxh4)" filter="url(#f2mlu3lhj4kxh)" height="33.9688" style="stroke: #A80036; stroke-width: 1.5;" width="173" x="66.5" y="196"/><text fill="#000000" font-family="sans-serif" font-size="12" lengthAdjust="spacingAndGlyphs" textLength="159" x="73.5" y="209.1387">Component__GlobalEffect</text><line style="stroke: #A80036; stroke-width: 1.5;" x1="67.5" x2="238.5" y1="213.9688" y2="213.9688"/><rect fill="url(#g2mlu3lhj4kxh4)" filter="url(#f2mlu3lhj4kxh)" height="33.9688" style="stroke: #A80036; stroke-width: 1.5;" width="164" x="275" y="196"/><text fill="#000000" font-family="sans-serif" font-size="12" lengthAdjust="spacingAndGlyphs" textLength="150" x="282" y="209.1387">Component__GlobalAmp</text><line style="stroke: #A80036; stroke-width: 1.5;" x1="276" x2="438" y1="213.9688" y2="213.9688"/><rect fill="url(#g2mlu3lhj4kxh5)" filter="url(#f2mlu3lhj4kxh)" height="33.9688" style="stroke: #A80036; stroke-width: 1.5;" width="88" x="215" y="384"/><text fill="#000000" font-family="sans-serif" font-size="12" lengthAdjust="spacingAndGlyphs" textLength="74" x="222" y="397.1387">Parameter1</text><line style="stroke: #A80036; stroke-width: 1.5;" x1="216" x2="302" y1="401.9688" y2="401.9688"/><rect fill="url(#g2mlu3lhj4kxh5)" filter="url(#f2mlu3lhj4kxh)" height="33.9688" style="stroke: #A80036; stroke-width: 1.5;" width="88" x="338" y="384"/><text fill="#000000" font-family="sans-serif" font-size="12" lengthAdjust="spacingAndGlyphs" textLength="74" x="345" y="397.1387">Parameter2</text><line style="stroke: #A80036; stroke-width: 1.5;" x1="339" x2="425" y1="401.9688" y2="401.9688"/><rect fill="url(#g2mlu3lhj4kxh5)" filter="url(#f2mlu3lhj4kxh)" height="33.9688" style="stroke: #A80036; stroke-width: 1.5;" width="88" x="461" y="384"/><text fill="#000000" font-family="sans-serif" font-size="12" lengthAdjust="spacingAndGlyphs" textLength="74" x="468" y="397.1387">Parameter3</text><line style="stroke: #A80036; stroke-width: 1.5;" x1="462" x2="548" y1="401.9688" y2="401.9688"/><rect fill="url(#g2mlu3lhj4kxh5)" filter="url(#f2mlu3lhj4kxh)" height="33.9688" style="stroke: #A80036; stroke-width: 1.5;" width="88" x="584" y="384"/><text fill="#000000" font-family="sans-serif" font-size="12" lengthAdjust="spacingAndGlyphs" textLength="74" x="591" y="397.1387">Parameter4</text><line style="stroke: #A80036; stroke-width: 1.5;" x1="585" x2="671" y1="401.9688" y2="401.9688"/><rect fill="url(#g2mlu3lhj4kxh5)" filter="url(#f2mlu3lhj4kxh)" height="33.9688" style="stroke: #A80036; stroke-width: 1.5;" width="88" x="707" y="384"/><text fill="#000000" font-family="sans-serif" font-size="12" lengthAdjust="spacingAndGlyphs" textLength="74" x="714" y="397.1387">Parameter5</text><line style="stroke: #A80036; stroke-width: 1.5;" x1="708" x2="794" y1="401.9688" y2="401.9688"/><rect fill="url(#g2mlu3lhj4kxh5)" filter="url(#f2mlu3lhj4kxh)" height="33.9688" style="stroke: #A80036; stroke-width: 1.5;" width="88" x="830" y="384"/><text fill="#000000" font-family="sans-serif" font-size="12" lengthAdjust="spacingAndGlyphs" textLength="74" x="837" y="397.1387">Parameter6</text><line style="stroke: #A80036; stroke-width: 1.5;" x1="831" x2="917" y1="401.9688" y2="401.9688"/><rect fill="url(#g2mlu3lhj4kxh5)" filter="url(#f2mlu3lhj4kxh)" height="33.9688" style="stroke: #A80036; stroke-width: 1.5;" width="88" x="953" y="384"/><text fill="#000000" font-family="sans-serif" font-size="12" lengthAdjust="spacingAndGlyphs" textLength="74" x="960" y="397.1387">Parameter7</text><line style="stroke: #A80036; stroke-width: 1.5;" x1="954" x2="1040" y1="401.9688" y2="401.9688"/><rect fill="url(#g2mlu3lhj4kxh5)" filter="url(#f2mlu3lhj4kxh)" height="33.9688" style="stroke: #A80036; stroke-width: 1.5;" width="88" x="6" y="290"/><text fill="#000000" font-family="sans-serif" font-size="12" lengthAdjust="spacingAndGlyphs" textLength="74" x="13" y="303.1387">Parameter8</text><line style="stroke: #A80036; stroke-width: 1.5;" x1="7" x2="93" y1="307.9688" y2="307.9688"/><rect fill="url(#g2mlu3lhj4kxh5)" filter="url(#f2mlu3lhj4kxh)" height="33.9688" style="stroke: #A80036; stroke-width: 1.5;" width="88" x="129" y="290"/><text fill="#000000" font-family="sans-serif" font-size="12" lengthAdjust="spacingAndGlyphs" textLength="74" x="136" y="303.1387">Parameter9</text><line style="stroke: #A80036; stroke-width: 1.5;" x1="130" x2="216" y1="307.9688" y2="307.9688"/><rect fill="url(#g2mlu3lhj4kxh5)" filter="url(#f2mlu3lhj4kxh)" height="33.9688" style="stroke: #A80036; stroke-width: 1.5;" width="96" x="290" y="290"/><text fill="#000000" font-family="sans-serif" font-size="12" lengthAdjust="spacingAndGlyphs" textLength="82" x="297" y="303.1387">Parameter10</text><line style="stroke: #A80036; stroke-width: 1.5;" x1="291" x2="385" y1="307.9688" y2="307.9688"/><rect fill="url(#g2mlu3lhj4kxh5)" filter="url(#f2mlu3lhj4kxh)" height="33.9688" style="stroke: #A80036; stroke-width: 1.5;" width="96" x="1076" y="384"/><text fill="#000000" font-family="sans-serif" font-size="12" lengthAdjust="spacingAndGlyphs" textLength="82" x="1083" y="397.1387">Parameter11</text><line style="stroke: #A80036; stroke-width: 1.5;" x1="1077" x2="1171" y1="401.9688" y2="401.9688"/><rect fill="url(#g2mlu3lhj4kxh5)" filter="url(#f2mlu3lhj4kxh)" height="33.9688" style="stroke: #A80036; stroke-width: 1.5;" width="96" x="1207" y="384"/><text fill="#000000" font-family="sans-serif" font-size="12" lengthAdjust="spacingAndGlyphs" textLength="82" x="1214" y="397.1387">Parameter12</text><line style="stroke: #A80036; stroke-width: 1.5;" x1="1208" x2="1302" y1="401.9688" y2="401.9688"/><rect fill="url(#g2mlu3lhj4kxh5)" filter="url(#f2mlu3lhj4kxh)" height="33.9688" style="stroke: #A80036; stroke-width: 1.5;" width="96" x="1338" y="384"/><text fill="#000000" font-family="sans-serif" font-size="12" lengthAdjust="spacingAndGlyphs" textLength="82" x="1345" y="397.1387">Parameter13</text><line style="stroke: #A80036; stroke-width: 1.5;" x1="1339" x2="1433" y1="401.9688" y2="401.9688"/><!--link SoundSection to Global--><path d="M642.3336,39.1745 C569.9185,59.4335 439.4105,95.9447 383.5457,111.5735 " fill="none" id="SoundSection-Global" style="stroke: #A80036; stroke-width: 1.0;"/><!--link SoundSection to Voice1--><path d="M668.3714,42.0227 C643.8768,58.9528 606.496,84.7896 581.9049,101.7863 " fill="none" id="SoundSection-Voice1" style="stroke: #A80036; stroke-width: 1.0;"/><!--link SoundSection to Voice2--><path d="M684.7463,42.241 C676.6269,59.2017 664.3027,84.9455 656.2014,101.8683 " fill="none" id="SoundSection-Voice2" style="stroke: #A80036; stroke-width: 1.0;"/><!--link SoundSection to Voice3--><path d="M701.4371,42.241 C709.737,59.2017 722.335,84.9455 730.6164,101.8683 " fill="none" id="SoundSection-Voice3" style="stroke: #A80036; stroke-width: 1.0;"/><!--link SoundSection to Voice4--><path d="M717.8097,42.0227 C742.4844,58.9528 780.1401,84.7896 804.9119,101.7863 " fill="none" id="SoundSection-Voice4" style="stroke: #A80036; stroke-width: 1.0;"/><!--link SoundSection to Voice5--><path d="M734.2891,42.0227 C780.2301,60.9633 853.2097,91.0514 892.9553,107.4377 " fill="none" id="SoundSection-Voice5" style="stroke: #A80036; stroke-width: 1.0;"/><!--link Global to Component__GlobalEffect--><path d="M330.3306,131.2889 C294.4742,147.8109 230.5566,177.2631 190.0463,195.9296 " fill="none" id="Global-Component__GlobalEffect" style="stroke: #A80036; stroke-width: 1.0;"/><!--link Global to Component__GlobalAmp--><path d="M357,136.241 C357,153.2017 357,178.9455 357,195.8683 " fill="none" id="Global-Component__GlobalAmp" style="stroke: #A80036; stroke-width: 1.0;"/><!--link Voice1 to SoundEngine1--><path d="M573.6908,136.241 C590.1101,153.2017 615.0323,178.9455 631.415,195.8683 " fill="none" id="Voice1-SoundEngine1" style="stroke: #A80036; stroke-width: 1.0;"/><!--link Voice2 to SoundEngine1--><path d="M648,136.241 C648,153.2017 648,178.9455 648,195.8683 " fill="none" id="Voice2-SoundEngine1" style="stroke: #A80036; stroke-width: 1.0;"/><!--link Voice3 to SoundEngine1--><path d="M722.3092,136.241 C705.8899,153.2017 680.9677,178.9455 664.585,195.8683 " fill="none" id="Voice3-SoundEngine1" style="stroke: #A80036; stroke-width: 1.0;"/><!--link Voice4 to SoundEngine2--><path d="M846.6908,136.241 C863.1101,153.2017 888.0323,178.9455 904.415,195.8683 " fill="none" id="Voice4-SoundEngine2" style="stroke: #A80036; stroke-width: 1.0;"/><!--link Voice5 to SoundEngine2--><path d="M921,136.241 C921,153.2017 921,178.9455 921,195.8683 " fill="none" id="Voice5-SoundEngine2" style="stroke: #A80036; stroke-width: 1.0;"/><!--link SoundEngine1 to Component__Osc--><path d="M682.7698,230.0227 C717.4585,247.0057 770.4534,272.9511 805.165,289.9454 " fill="none" id="SoundEngine1-Component__Osc" style="stroke: #A80036; stroke-width: 1.0;"/><!--link SoundEngine1 to Component__Amp--><path d="M648,230.241 C648,247.2017 648,272.9455 648,289.8683 " fill="none" id="SoundEngine1-Component__Amp" style="stroke: #A80036; stroke-width: 1.0;"/><!--link SoundEngine1 to Component__Filter--><path d="M618.663,230.0227 C589.3944,247.0057 544.68,272.9511 515.392,289.9454 " fill="none" id="SoundEngine1-Component__Filter" style="stroke: #A80036; stroke-width: 1.0;"/><!--link SoundEngine2 to Component__Fm--><path d="M969.5328,230.0227 C1017.9525,247.0057 1091.9245,272.9511 1140.3762,289.9454 " fill="none" id="SoundEngine2-Component__Fm" style="stroke: #A80036; stroke-width: 1.0;"/><!--link Component__Filter to Parameter1--><path d="M444.892,324.0227 C403.8798,341.0057 341.2244,366.9511 300.1851,383.9454 " fill="none" id="Component__Filter-Parameter1" style="stroke: #A80036; stroke-width: 1.0;"/><!--link Component__Filter to Parameter2--><path d="M466.9248,324.241 C448.1598,341.2017 419.6773,366.9455 400.9543,383.8683 " fill="none" id="Component__Filter-Parameter2" style="stroke: #A80036; stroke-width: 1.0;"/><!--link Component__Filter to Parameter3--><path d="M489.4849,324.241 C492.9131,341.2017 498.1166,366.9455 501.5372,383.8683 " fill="none" id="Component__Filter-Parameter3" style="stroke: #A80036; stroke-width: 1.0;"/><!--link Component__Amp to Parameter4--><path d="M644.3317,324.241 C640.723,341.2017 635.2456,366.9455 631.6451,383.8683 " fill="none" id="Component__Amp-Parameter4" style="stroke: #A80036; stroke-width: 1.0;"/><!--link Component__Osc to Parameter5--><path d="M823.676,324.241 C807.6176,341.2017 783.2431,366.9455 767.2205,383.8683 " fill="none" id="Component__Osc-Parameter5" style="stroke: #A80036; stroke-width: 1.0;"/><!--link Component__Osc to Parameter6--><path d="M846.2361,324.241 C852.3708,341.2017 861.6824,366.9455 867.8034,383.8683 " fill="none" id="Component__Osc-Parameter6" style="stroke: #A80036; stroke-width: 1.0;"/><!--link Component__Osc to Parameter7--><path d="M868.4315,324.0227 C896.7968,341.0057 940.1311,366.9511 968.5152,383.9454 " fill="none" id="Component__Osc-Parameter7" style="stroke: #A80036; stroke-width: 1.0;"/><!--link Component__GlobalEffect to Parameter8--><path d="M134.1082,230.241 C115.5237,247.2017 87.3151,272.9455 68.772,289.8683 " fill="none" id="Component__GlobalEffect-Parameter8" style="stroke: #A80036; stroke-width: 1.0;"/><!--link Component__GlobalEffect to Parameter9--><path d="M156.6683,230.241 C160.277,247.2017 165.7544,272.9455 169.3549,289.8683 " fill="none" id="Component__GlobalEffect-Parameter9" style="stroke: #A80036; stroke-width: 1.0;"/><!--link Component__GlobalAmp to Parameter10--><path d="M353.5151,230.241 C350.0869,247.2017 344.8834,272.9455 341.4628,289.8683 " fill="none" id="Component__GlobalAmp-Parameter10" style="stroke: #A80036; stroke-width: 1.0;"/><!--link Component__Fm to Parameter11--><path d="M1177.078,324.241 C1165.3499,341.2017 1147.5483,366.9455 1135.8464,383.8683 " fill="none" id="Component__Fm-Parameter11" style="stroke: #A80036; stroke-width: 1.0;"/><!--link Component__Fm to Parameter12--><path d="M1201.1054,324.241 C1213.0139,341.2017 1231.0894,366.9455 1242.9713,383.8683 " fill="none" id="Component__Fm-Parameter12" style="stroke: #A80036; stroke-width: 1.0;"/><!--link Component__Fm to Parameter13--><path d="M1224.6752,324.0227 C1260.2673,341.0057 1314.6422,366.9511 1350.2579,383.9454 " fill="none" id="Component__Fm-Parameter13" style="stroke: #A80036; stroke-width: 1.0;"/><!--
@startuml

Object SoundSection #white-pink
Object Global #white-brown
Object Voice1 #white-yellow
Object Voice2 #white-yellow
Object Voice3 #white-yellow
Object Voice4 #white-yellow
Object Voice5 #white-yellow
Object SoundEngine1 #white-red
Object SoundEngine2 #white-red
Object Component__Filter #white-green
Object Component__Amp #white-green
Object Component__Osc #white-green
Object Component__Fm #white-green
Object Component__GlobalEffect #white-green
Object Component__GlobalAmp #white-green
Object Parameter1 #white-blue
Object Parameter2 #white-blue
Object Parameter3 #white-blue
Object Parameter4 #white-blue
Object Parameter5 #white-blue
Object Parameter6 #white-blue
Object Parameter7 #white-blue
Object Parameter8 #white-blue
Object Parameter9 #white-blue
Object Parameter10 #white-blue
Object Parameter11 #white-blue
Object Parameter12 #white-blue
Object Parameter13 #white-blue

SoundSection - - Global
SoundSection - - Voice1
SoundSection - - Voice2
SoundSection - - Voice3
SoundSection - - Voice4
SoundSection - - Voice5

Global - - Component__GlobalEffect
Global - - Component__GlobalAmp
Voice1 - - SoundEngine1
Voice2 - - SoundEngine1
Voice3 - - SoundEngine1
Voice4 - - SoundEngine2
Voice5 - - SoundEngine2

SoundEngine1 - - Component__Osc
SoundEngine1 - - Component__Amp
SoundEngine1 - - Component__Filter
SoundEngine2 - - Component__Fm

Component__Filter - - Parameter1
Component__Filter - - Parameter2
Component__Filter - - Parameter3
Component__Amp - - Parameter4
Component__Osc - - Parameter5
Component__Osc - - Parameter6
Component__Osc - - Parameter7
Component__GlobalEffect - - Parameter8
Component__GlobalEffect - - Parameter9
Component__GlobalAmp - - Parameter10
Component__Fm - - Parameter11
Component__Fm - - Parameter12
Component__Fm - - Parameter13



@enduml

PlantUML version 1.2019.09(Mon Aug 26 18:19:51 CEST 2019)
(GPL source distribution)
Java Runtime: OpenJDK Runtime Environment
JVM: OpenJDK 64-Bit Server VM
Java Version: 11.0.6+10-post-Ubuntu-1ubuntu119.10.1
Operating System: Linux
OS Version: 5.3.0-46-generic
Default Encoding: UTF-8
Language: en
Country: US
--></g></svg>