<?xml version="1.0" encoding="UTF-8" standalone="no"?><svg xmlns="http://www.w3.org/2000/svg" xmlns:xlink="http://www.w3.org/1999/xlink" contentScriptType="application/ecmascript" contentStyleType="text/css" height="438px" preserveAspectRatio="none" style="width:1595px;height:438px;" version="1.1" viewBox="0 0 1595 438" width="1595px" zoomAndPan="magnify"><defs><filter height="300%" id="f17lchzf9kgytn" width="300%" x="-1" y="-1"><feGaussianBlur result="blurOut" stdDeviation="2.0"/><feColorMatrix in="blurOut" result="blurOut2" type="matrix" values="0 0 0 0 0 0 0 0 0 0 0 0 0 0 0 0 0 0 .4 0"/><feOffset dx="4.0" dy="4.0" in="blurOut2" result="blurOut3"/><feBlend in="SourceGraphic" in2="blurOut3" mode="normal"/></filter><linearGradient id="g17lchzf9kgytn0" x1="50%" x2="50%" y1="0%" y2="100%"><stop offset="0%" stop-color="#FFFFFF"/><stop offset="100%" stop-color="#0000FF"/></linearGradient><linearGradient id="g17lchzf9kgytn1" x1="50%" x2="50%" y1="0%" y2="100%"><stop offset="0%" stop-color="#FFFFFF"/><stop offset="100%" stop-color="#008000"/></linearGradient><linearGradient id="g17lchzf9kgytn2" x1="50%" x2="50%" y1="0%" y2="100%"><stop offset="0%" stop-color="#FFFFFF"/><stop offset="100%" stop-color="#FFC0CB"/></linearGradient><linearGradient id="g17lchzf9kgytn3" x1="50%" x2="50%" y1="0%" y2="100%"><stop offset="0%" stop-color="#FFFFFF"/><stop offset="100%" stop-color="#A52A2A"/></linearGradient><linearGradient id="g17lchzf9kgytn4" x1="50%" x2="50%" y1="0%" y2="100%"><stop offset="0%" stop-color="#FFFFFF"/><stop offset="100%" stop-color="#FFFF00"/></linearGradient><linearGradient id="g17lchzf9kgytn5" x1="50%" x2="50%" y1="0%" y2="100%"><stop offset="0%" stop-color="#FFFFFF"/><stop offset="100%" stop-color="#FF0000"/></linearGradient></defs><g><!--cluster SoundEngine1_Parameters--><polygon fill="#FFFFFF" filter="url(#f17lchzf9kgytn)" points="268,357,485,357,492,379.2969,1145,379.2969,1145,426,268,426,268,357" style="stroke: #000000; stroke-width: 1.5;"/><line style="stroke: #000000; stroke-width: 1.5;" x1="268" x2="492" y1="379.2969" y2="379.2969"/><text fill="#000000" font-family="sans-serif" font-size="14" font-weight="bold" lengthAdjust="spacingAndGlyphs" textLength="211" x="272" y="371.9951">SoundEngine1_Parameters</text><!--cluster Global_Parameters--><polygon fill="#FFFFFF" filter="url(#f17lchzf9kgytn)" points="14,263,167,263,174,285.2969,407,285.2969,407,332,14,332,14,263" style="stroke: #000000; stroke-width: 1.5;"/><line style="stroke: #000000; stroke-width: 1.5;" x1="14" x2="174" y1="285.2969" y2="285.2969"/><text fill="#000000" font-family="sans-serif" font-size="14" font-weight="bold" lengthAdjust="spacingAndGlyphs" textLength="147" x="18" y="277.9951">Global_Parameters</text><!--cluster SoundEngine2_Parameters--><polygon fill="#FFFFFF" filter="url(#f17lchzf9kgytn)" points="1164,357,1381,357,1388,379.2969,1573,379.2969,1573,426,1164,426,1164,357" style="stroke: #000000; stroke-width: 1.5;"/><line style="stroke: #000000; stroke-width: 1.5;" x1="1164" x2="1388" y1="379.2969" y2="379.2969"/><text fill="#000000" font-family="sans-serif" font-size="14" font-weight="bold" lengthAdjust="spacingAndGlyphs" textLength="211" x="1168" y="371.9951">SoundEngine2_Parameters</text><!--cluster SoundEngine1_Components--><polygon fill="#FFFFFF" filter="url(#f17lchzf9kgytn)" points="497,263,723,263,730,285.2969,994,285.2969,994,332,497,332,497,263" style="stroke: #000000; stroke-width: 1.5;"/><line style="stroke: #000000; stroke-width: 1.5;" x1="497" x2="730" y1="285.2969" y2="285.2969"/><text fill="#000000" font-family="sans-serif" font-size="14" font-weight="bold" lengthAdjust="spacingAndGlyphs" textLength="220" x="501" y="277.9951">SoundEngine1_Components</text><!--cluster SoundEngine2_Components--><polygon fill="#FFFFFF" filter="url(#f17lchzf9kgytn)" points="1259,263,1485,263,1492,285.2969,1495,285.2969,1495,332,1259,332,1259,263" style="stroke: #000000; stroke-width: 1.5;"/><line style="stroke: #000000; stroke-width: 1.5;" x1="1259" x2="1492" y1="285.2969" y2="285.2969"/><text fill="#000000" font-family="sans-serif" font-size="14" font-weight="bold" lengthAdjust="spacingAndGlyphs" textLength="220" x="1263" y="277.9951">SoundEngine2_Components</text><!--cluster Global_Components--><polygon fill="#FFFFFF" filter="url(#f17lchzf9kgytn)" points="67,169,229,169,236,191.2969,491,191.2969,491,238,67,238,67,169" style="stroke: #000000; stroke-width: 1.5;"/><line style="stroke: #000000; stroke-width: 1.5;" x1="67" x2="236" y1="191.2969" y2="191.2969"/><text fill="#000000" font-family="sans-serif" font-size="14" font-weight="bold" lengthAdjust="spacingAndGlyphs" textLength="156" x="71" y="183.9951">Global_Components</text><rect fill="url(#g17lchzf9kgytn0)" filter="url(#f17lchzf9kgytn)" height="33.9688" style="stroke: #A80036; stroke-width: 1.5;" width="88" x="1049" y="384"/><text fill="#000000" font-family="sans-serif" font-size="12" lengthAdjust="spacingAndGlyphs" textLength="74" x="1056" y="397.1387">Parameter1</text><line style="stroke: #A80036; stroke-width: 1.5;" x1="1050" x2="1136" y1="401.9688" y2="401.9688"/><rect fill="url(#g17lchzf9kgytn0)" filter="url(#f17lchzf9kgytn)" height="33.9688" style="stroke: #A80036; stroke-width: 1.5;" width="88" x="926" y="384"/><text fill="#000000" font-family="sans-serif" font-size="12" lengthAdjust="spacingAndGlyphs" textLength="74" x="933" y="397.1387">Parameter2</text><line style="stroke: #A80036; stroke-width: 1.5;" x1="927" x2="1013" y1="401.9688" y2="401.9688"/><rect fill="url(#g17lchzf9kgytn0)" filter="url(#f17lchzf9kgytn)" height="33.9688" style="stroke: #A80036; stroke-width: 1.5;" width="88" x="803" y="384"/><text fill="#000000" font-family="sans-serif" font-size="12" lengthAdjust="spacingAndGlyphs" textLength="74" x="810" y="397.1387">Parameter3</text><line style="stroke: #A80036; stroke-width: 1.5;" x1="804" x2="890" y1="401.9688" y2="401.9688"/><rect fill="url(#g17lchzf9kgytn0)" filter="url(#f17lchzf9kgytn)" height="33.9688" style="stroke: #A80036; stroke-width: 1.5;" width="88" x="680" y="384"/><text fill="#000000" font-family="sans-serif" font-size="12" lengthAdjust="spacingAndGlyphs" textLength="74" x="687" y="397.1387">Parameter4</text><line style="stroke: #A80036; stroke-width: 1.5;" x1="681" x2="767" y1="401.9688" y2="401.9688"/><rect fill="url(#g17lchzf9kgytn0)" filter="url(#f17lchzf9kgytn)" height="33.9688" style="stroke: #A80036; stroke-width: 1.5;" width="88" x="557" y="384"/><text fill="#000000" font-family="sans-serif" font-size="12" lengthAdjust="spacingAndGlyphs" textLength="74" x="564" y="397.1387">Parameter5</text><line style="stroke: #A80036; stroke-width: 1.5;" x1="558" x2="644" y1="401.9688" y2="401.9688"/><rect fill="url(#g17lchzf9kgytn0)" filter="url(#f17lchzf9kgytn)" height="33.9688" style="stroke: #A80036; stroke-width: 1.5;" width="88" x="434" y="384"/><text fill="#000000" font-family="sans-serif" font-size="12" lengthAdjust="spacingAndGlyphs" textLength="74" x="441" y="397.1387">Parameter6</text><line style="stroke: #A80036; stroke-width: 1.5;" x1="435" x2="521" y1="401.9688" y2="401.9688"/><rect fill="url(#g17lchzf9kgytn0)" filter="url(#f17lchzf9kgytn)" height="33.9688" style="stroke: #A80036; stroke-width: 1.5;" width="88" x="311" y="384"/><text fill="#000000" font-family="sans-serif" font-size="12" lengthAdjust="spacingAndGlyphs" textLength="74" x="318" y="397.1387">Parameter7</text><line style="stroke: #A80036; stroke-width: 1.5;" x1="312" x2="398" y1="401.9688" y2="401.9688"/><rect fill="url(#g17lchzf9kgytn0)" filter="url(#f17lchzf9kgytn)" height="33.9688" style="stroke: #A80036; stroke-width: 1.5;" width="88" x="180" y="290"/><text fill="#000000" font-family="sans-serif" font-size="12" lengthAdjust="spacingAndGlyphs" textLength="74" x="187" y="303.1387">Parameter8</text><line style="stroke: #A80036; stroke-width: 1.5;" x1="181" x2="267" y1="307.9688" y2="307.9688"/><rect fill="url(#g17lchzf9kgytn0)" filter="url(#f17lchzf9kgytn)" height="33.9688" style="stroke: #A80036; stroke-width: 1.5;" width="88" x="57" y="290"/><text fill="#000000" font-family="sans-serif" font-size="12" lengthAdjust="spacingAndGlyphs" textLength="74" x="64" y="303.1387">Parameter9</text><line style="stroke: #A80036; stroke-width: 1.5;" x1="58" x2="144" y1="307.9688" y2="307.9688"/><rect fill="url(#g17lchzf9kgytn0)" filter="url(#f17lchzf9kgytn)" height="33.9688" style="stroke: #A80036; stroke-width: 1.5;" width="96" x="303" y="290"/><text fill="#000000" font-family="sans-serif" font-size="12" lengthAdjust="spacingAndGlyphs" textLength="82" x="310" y="303.1387">Parameter10</text><line style="stroke: #A80036; stroke-width: 1.5;" x1="304" x2="398" y1="307.9688" y2="307.9688"/><rect fill="url(#g17lchzf9kgytn0)" filter="url(#f17lchzf9kgytn)" height="33.9688" style="stroke: #A80036; stroke-width: 1.5;" width="96" x="1338" y="384"/><text fill="#000000" font-family="sans-serif" font-size="12" lengthAdjust="spacingAndGlyphs" textLength="82" x="1345" y="397.1387">Parameter11</text><line style="stroke: #A80036; stroke-width: 1.5;" x1="1339" x2="1433" y1="401.9688" y2="401.9688"/><rect fill="url(#g17lchzf9kgytn0)" filter="url(#f17lchzf9kgytn)" height="33.9688" style="stroke: #A80036; stroke-width: 1.5;" width="96" x="1207" y="384"/><text fill="#000000" font-family="sans-serif" font-size="12" lengthAdjust="spacingAndGlyphs" textLength="82" x="1214" y="397.1387">Parameter12</text><line style="stroke: #A80036; stroke-width: 1.5;" x1="1208" x2="1302" y1="401.9688" y2="401.9688"/><rect fill="url(#g17lchzf9kgytn0)" filter="url(#f17lchzf9kgytn)" height="33.9688" style="stroke: #A80036; stroke-width: 1.5;" width="96" x="1469" y="384"/><text fill="#000000" font-family="sans-serif" font-size="12" lengthAdjust="spacingAndGlyphs" textLength="82" x="1476" y="397.1387">Parameter13</text><line style="stroke: #A80036; stroke-width: 1.5;" x1="1470" x2="1564" y1="401.9688" y2="401.9688"/><rect fill="url(#g17lchzf9kgytn1)" filter="url(#f17lchzf9kgytn)" height="33.9688" style="stroke: #A80036; stroke-width: 1.5;" width="129" x="821.5" y="290"/><text fill="#000000" font-family="sans-serif" font-size="12" lengthAdjust="spacingAndGlyphs" textLength="115" x="828.5" y="303.1387">Component__Filter</text><line style="stroke: #A80036; stroke-width: 1.5;" x1="822.5" x2="949.5" y1="307.9688" y2="307.9688"/><rect fill="url(#g17lchzf9kgytn1)" filter="url(#f17lchzf9kgytn)" height="33.9688" style="stroke: #A80036; stroke-width: 1.5;" width="125" x="661.5" y="290"/><text fill="#000000" font-family="sans-serif" font-size="12" lengthAdjust="spacingAndGlyphs" textLength="111" x="668.5" y="303.1387">Component__Amp</text><line style="stroke: #A80036; stroke-width: 1.5;" x1="662.5" x2="785.5" y1="307.9688" y2="307.9688"/><rect fill="url(#g17lchzf9kgytn1)" filter="url(#f17lchzf9kgytn)" height="33.9688" style="stroke: #A80036; stroke-width: 1.5;" width="121" x="505.5" y="290"/><text fill="#000000" font-family="sans-serif" font-size="12" lengthAdjust="spacingAndGlyphs" textLength="107" x="512.5" y="303.1387">Component__Osc</text><line style="stroke: #A80036; stroke-width: 1.5;" x1="506.5" x2="625.5" y1="307.9688" y2="307.9688"/><rect fill="url(#g17lchzf9kgytn1)" filter="url(#f17lchzf9kgytn)" height="33.9688" style="stroke: #A80036; stroke-width: 1.5;" width="116" x="1302" y="290"/><text fill="#000000" font-family="sans-serif" font-size="12" lengthAdjust="spacingAndGlyphs" textLength="102" x="1309" y="303.1387">Component__Fm</text><line style="stroke: #A80036; stroke-width: 1.5;" x1="1303" x2="1417" y1="307.9688" y2="307.9688"/><rect fill="url(#g17lchzf9kgytn1)" filter="url(#f17lchzf9kgytn)" height="33.9688" style="stroke: #A80036; stroke-width: 1.5;" width="173" x="75.5" y="196"/><text fill="#000000" font-family="sans-serif" font-size="12" lengthAdjust="spacingAndGlyphs" textLength="159" x="82.5" y="209.1387">Component__GlobalEffect</text><line style="stroke: #A80036; stroke-width: 1.5;" x1="76.5" x2="247.5" y1="213.9688" y2="213.9688"/><rect fill="url(#g17lchzf9kgytn1)" filter="url(#f17lchzf9kgytn)" height="33.9688" style="stroke: #A80036; stroke-width: 1.5;" width="164" x="284" y="196"/><text fill="#000000" font-family="sans-serif" font-size="12" lengthAdjust="spacingAndGlyphs" textLength="150" x="291" y="209.1387">Component__GlobalAmp</text><line style="stroke: #A80036; stroke-width: 1.5;" x1="285" x2="447" y1="213.9688" y2="213.9688"/><rect fill="url(#g17lchzf9kgytn2)" filter="url(#f17lchzf9kgytn)" height="33.9688" style="stroke: #A80036; stroke-width: 1.5;" width="101" x="893.5" y="8"/><text fill="#000000" font-family="sans-serif" font-size="12" lengthAdjust="spacingAndGlyphs" textLength="87" x="900.5" y="21.1387">SoundSection</text><line style="stroke: #A80036; stroke-width: 1.5;" x1="894.5" x2="993.5" y1="25.9688" y2="25.9688"/><rect fill="url(#g17lchzf9kgytn3)" filter="url(#f17lchzf9kgytn)" height="33.9688" style="stroke: #A80036; stroke-width: 1.5;" width="53" x="456.5" y="102"/><text fill="#000000" font-family="sans-serif" font-size="12" lengthAdjust="spacingAndGlyphs" textLength="39" x="463.5" y="115.1387">Global</text><line style="stroke: #A80036; stroke-width: 1.5;" x1="457.5" x2="508.5" y1="119.9688" y2="119.9688"/><rect fill="url(#g17lchzf9kgytn4)" filter="url(#f17lchzf9kgytn)" height="33.9688" style="stroke: #A80036; stroke-width: 1.5;" width="56" x="780" y="102"/><text fill="#000000" font-family="sans-serif" font-size="12" lengthAdjust="spacingAndGlyphs" textLength="42" x="787" y="115.1387">Voice1</text><line style="stroke: #A80036; stroke-width: 1.5;" x1="781" x2="835" y1="119.9688" y2="119.9688"/><rect fill="url(#g17lchzf9kgytn4)" filter="url(#f17lchzf9kgytn)" height="33.9688" style="stroke: #A80036; stroke-width: 1.5;" width="56" x="871" y="102"/><text fill="#000000" font-family="sans-serif" font-size="12" lengthAdjust="spacingAndGlyphs" textLength="42" x="878" y="115.1387">Voice2</text><line style="stroke: #A80036; stroke-width: 1.5;" x1="872" x2="926" y1="119.9688" y2="119.9688"/><rect fill="url(#g17lchzf9kgytn4)" filter="url(#f17lchzf9kgytn)" height="33.9688" style="stroke: #A80036; stroke-width: 1.5;" width="56" x="962" y="102"/><text fill="#000000" font-family="sans-serif" font-size="12" lengthAdjust="spacingAndGlyphs" textLength="42" x="969" y="115.1387">Voice3</text><line style="stroke: #A80036; stroke-width: 1.5;" x1="963" x2="1017" y1="119.9688" y2="119.9688"/><rect fill="url(#g17lchzf9kgytn4)" filter="url(#f17lchzf9kgytn)" height="33.9688" style="stroke: #A80036; stroke-width: 1.5;" width="56" x="1053" y="102"/><text fill="#000000" font-family="sans-serif" font-size="12" lengthAdjust="spacingAndGlyphs" textLength="42" x="1060" y="115.1387">Voice4</text><line style="stroke: #A80036; stroke-width: 1.5;" x1="1054" x2="1108" y1="119.9688" y2="119.9688"/><rect fill="url(#g17lchzf9kgytn4)" filter="url(#f17lchzf9kgytn)" height="33.9688" style="stroke: #A80036; stroke-width: 1.5;" width="56" x="1144" y="102"/><text fill="#000000" font-family="sans-serif" font-size="12" lengthAdjust="spacingAndGlyphs" textLength="42" x="1151" y="115.1387">Voice5</text><line style="stroke: #A80036; stroke-width: 1.5;" x1="1145" x2="1199" y1="119.9688" y2="119.9688"/><rect fill="url(#g17lchzf9kgytn5)" filter="url(#f17lchzf9kgytn)" height="33.9688" style="stroke: #A80036; stroke-width: 1.5;" width="105" x="846.5" y="196"/><text fill="#000000" font-family="sans-serif" font-size="12" lengthAdjust="spacingAndGlyphs" textLength="91" x="853.5" y="209.1387">SoundEngine1</text><line style="stroke: #A80036; stroke-width: 1.5;" x1="847.5" x2="950.5" y1="213.9688" y2="213.9688"/><rect fill="url(#g17lchzf9kgytn5)" filter="url(#f17lchzf9kgytn)" height="33.9688" style="stroke: #A80036; stroke-width: 1.5;" width="105" x="1119.5" y="196"/><text fill="#000000" font-family="sans-serif" font-size="12" lengthAdjust="spacingAndGlyphs" textLength="91" x="1126.5" y="209.1387">SoundEngine2</text><line style="stroke: #A80036; stroke-width: 1.5;" x1="1120.5" x2="1223.5" y1="213.9688" y2="213.9688"/><!--link SoundSection to Global--><path d="M893.3462,35.3285 C797.6778,54.8358 592.9842,96.5737 514.5128,112.5744 " fill="none" id="SoundSection-&gt;Global" style="stroke: #A80036; stroke-width: 1.0;"/><polygon fill="#A80036" points="509.5291,113.5906,519.1469,115.7115,514.4283,112.5915,517.5483,107.8729,509.5291,113.5906" style="stroke: #A80036; stroke-width: 1.0;"/><!--link SoundSection to Voice1--><path d="M919.3714,42.0227 C896.2163,58.027 861.5459,81.9903 837.0499,98.9214 " fill="none" id="SoundSection-&gt;Voice1" style="stroke: #A80036; stroke-width: 1.0;"/><polygon fill="#A80036" points="832.9049,101.7863,842.5829,99.9598,837.0181,98.9435,838.0344,93.3787,832.9049,101.7863" style="stroke: #A80036; stroke-width: 1.0;"/><!--link SoundSection to Voice2--><path d="M935.7463,42.241 C928.3246,57.7441 917.3899,80.5856 909.3782,97.3211 " fill="none" id="SoundSection-&gt;Voice2" style="stroke: #A80036; stroke-width: 1.0;"/><polygon fill="#A80036" points="907.2014,101.8683,914.6954,95.4777,909.3603,97.3584,907.4796,92.0234,907.2014,101.8683" style="stroke: #A80036; stroke-width: 1.0;"/><!--link SoundSection to Voice3--><path d="M952.4371,42.241 C960.0237,57.7441 971.2015,80.5856 979.3912,97.3211 " fill="none" id="SoundSection-&gt;Voice3" style="stroke: #A80036; stroke-width: 1.0;"/><polygon fill="#A80036" points="981.6164,101.8683,981.2531,92.0261,979.4185,97.3773,974.0674,95.5427,981.6164,101.8683" style="stroke: #A80036; stroke-width: 1.0;"/><!--link SoundSection to Voice4--><path d="M968.8097,42.0227 C992.135,58.027 1027.0603,81.9903 1051.7364,98.9214 " fill="none" id="SoundSection-&gt;Voice4" style="stroke: #A80036; stroke-width: 1.0;"/><polygon fill="#A80036" points="1055.9119,101.7863,1050.7539,93.3961,1051.7891,98.9575,1046.2277,99.9927,1055.9119,101.7863" style="stroke: #A80036; stroke-width: 1.0;"/><!--link SoundSection to Voice5--><path d="M985.2891,42.0227 C1029.4355,60.2234 1098.5494,88.7178 1139.149,105.4562 " fill="none" id="SoundSection-&gt;Voice5" style="stroke: #A80036; stroke-width: 1.0;"/><polygon fill="#A80036" points="1143.9553,107.4377,1137.1595,100.3091,1139.3328,105.5318,1134.1101,107.7051,1143.9553,107.4377" style="stroke: #A80036; stroke-width: 1.0;"/><!--link Global to Global_Components--><path d="M483,136.241 C483,142.6013 483,150.1966 483,158.0988 C483,160.0743 483,162.0691 483,164.0684 C483,165.0681 483,166.069 483,167.0692 C483,167.5693 483,168.0693 483,168.5688 C483,168.6937 483,168.8186 483,168.9434 " fill="none" id="Global-&gt;Global_Components" style="stroke: #A80036; stroke-width: 1.0;"/><polygon fill="#A80036" points="483,168.9434,487,159.9434,483,163.9434,479,159.9434,483,168.9434" style="stroke: #A80036; stroke-width: 1.0;"/><!--link Global to Global_Parameters--><path d="M456.4833,120.4139 C368.3631,125.344 89.1673,142.9067 59,169 C36.1123,188.7968 26.6363,221.0662 22.987,249.4242 C22.5309,252.9689 22.1658,256.4526 21.8769,259.8431 C21.8047,260.6907 21.7372,261.5325 21.6743,262.368 C21.6585,262.5769 21.6431,262.7853 21.6279,262.9934 " fill="none" id="Global-&gt;Global_Parameters" style="stroke: #A80036; stroke-width: 1.0;"/><polygon fill="#A80036" points="21.6279,262.9934,26.2717,254.3081,21.9915,258.0067,18.2929,253.7264,21.6279,262.9934" style="stroke: #A80036; stroke-width: 1.0;"/><!--link Voice1 to SoundEngine1--><path d="M824.6908,136.241 C839.9556,152.0091 862.5697,175.3687 878.8386,192.1739 " fill="none" id="Voice1-&gt;SoundEngine1" style="stroke: #A80036; stroke-width: 1.0;"/><polygon fill="#A80036" points="882.415,195.8683,879.0289,186.6198,878.9372,192.2759,873.2811,192.1843,882.415,195.8683" style="stroke: #A80036; stroke-width: 1.0;"/><!--link Voice2 to SoundEngine1--><path d="M899,136.241 C899,151.4791 899,173.8069 899,190.4576 " fill="none" id="Voice2-&gt;SoundEngine1" style="stroke: #A80036; stroke-width: 1.0;"/><polygon fill="#A80036" points="899,195.8683,903,186.8683,899,190.8683,895,186.8683,899,195.8683" style="stroke: #A80036; stroke-width: 1.0;"/><!--link Voice3 to SoundEngine1--><path d="M973.3092,136.241 C958.0444,152.0091 935.4303,175.3687 919.1614,192.1739 " fill="none" id="Voice3-&gt;SoundEngine1" style="stroke: #A80036; stroke-width: 1.0;"/><polygon fill="#A80036" points="915.585,195.8683,924.7189,192.1843,919.0628,192.2759,918.9711,186.6198,915.585,195.8683" style="stroke: #A80036; stroke-width: 1.0;"/><!--link Voice4 to SoundEngine2--><path d="M1097.6908,136.241 C1112.9556,152.0091 1135.5697,175.3687 1151.8386,192.1739 " fill="none" id="Voice4-&gt;SoundEngine2" style="stroke: #A80036; stroke-width: 1.0;"/><polygon fill="#A80036" points="1155.415,195.8683,1152.0289,186.6198,1151.9372,192.2759,1146.2811,192.1843,1155.415,195.8683" style="stroke: #A80036; stroke-width: 1.0;"/><!--link Voice5 to SoundEngine2--><path d="M1172,136.241 C1172,151.4791 1172,173.8069 1172,190.4576 " fill="none" id="Voice5-&gt;SoundEngine2" style="stroke: #A80036; stroke-width: 1.0;"/><polygon fill="#A80036" points="1172,195.8683,1176,186.8683,1172,190.8683,1168,186.8683,1172,195.8683" style="stroke: #A80036; stroke-width: 1.0;"/><!--link SoundEngine1 to SoundEngine1_Components--><path d="M929.8682,230.0704 C936.4426,234.322 943.3934,239.2683 949.9916,244.7948 C953.2908,247.558 956.5018,250.4663 959.5335,253.5053 C961.0494,255.0248 962.5205,256.5769 963.9354,258.16 C964.6428,258.9515 965.3362,259.7508 966.0141,260.5575 C966.3531,260.9609 966.6881,261.3661 967.0192,261.7732 C967.1847,261.9768 967.3492,262.1808 967.5127,262.3852 C967.5944,262.4875 967.6759,262.5898 967.7571,262.6923 C967.7977,262.7435 967.8383,262.7948 967.8788,262.8461 " fill="none" id="SoundEngine1-&gt;SoundEngine1_Components" style="stroke: #A80036; stroke-width: 1.0;"/><polygon fill="#A80036" points="967.8788,262.8461,965.4429,253.3032,964.7811,258.9212,959.1631,258.2594,967.8788,262.8461" style="stroke: #A80036; stroke-width: 1.0;"/><!--link SoundEngine1 to SoundEngine1_Parameters--><path d="M846.2632,215.3821 C750.3071,220.3775 551.3212,233.972 489,263 C448.2369,281.9867 454.9465,311.3506 415,332 C390.6093,344.6082 370.92,342.0867 352.0481,340.7988 C342.6121,340.1549 333.3805,339.8194 323.8676,341.8378 C319.1112,342.847 314.2845,344.4447 309.3268,346.8865 C306.8479,348.1074 304.3363,349.5393 301.7844,351.2142 C300.5084,352.0517 299.2224,352.9499 297.9253,353.9129 C297.2767,354.3944 296.6254,354.892 295.9713,355.4064 C295.6442,355.6636 295.3164,355.9249 294.9878,356.1905 C294.8236,356.3233 294.6591,356.4571 294.4945,356.592 " fill="none" id="SoundEngine1-&gt;SoundEngine1_Parameters" style="stroke: #A80036; stroke-width: 1.0;"/><polygon fill="#A80036" points="294.4945,356.592,303.991,353.9815,298.3618,353.4229,298.9204,347.7937,294.4945,356.592" style="stroke: #A80036; stroke-width: 1.0;"/><!--link SoundEngine2 to SoundEngine2_Components--><path d="M1224.5672,216.9502 C1258.3578,219.9865 1303.3538,224.9484 1343.8333,232.4265 C1364.073,236.1656 1383.1836,240.5337 1399.1998,245.6047 C1407.2079,248.1402 1414.4424,250.8514 1420.6576,253.7475 C1423.7653,255.1956 1426.6181,256.6899 1429.1854,258.2316 C1430.469,259.0024 1431.6813,259.7851 1432.8183,260.5798 C1433.3869,260.9772 1433.9366,261.3775 1434.467,261.7809 C1434.7322,261.9825 1434.9926,262.185 1435.2482,262.3882 C1435.3759,262.4898 1435.5025,262.5915 1435.6278,262.6935 " fill="none" id="SoundEngine2-&gt;SoundEngine2_Components" style="stroke: #A80036; stroke-width: 1.0;"/><polygon fill="#A80036" points="1435.6278,262.6935,1431.1718,253.9103,1431.7496,259.5376,1426.1223,260.1154,1435.6278,262.6935" style="stroke: #A80036; stroke-width: 1.0;"/><!--link SoundEngine2 to SoundEngine2_Parameters--><path d="M1172,230.0153 C1172,252.0697 1172,291.9361 1172,327.6287 C1172,336.5518 1172,345.2141 1172,353.272 C1172,354.2792 1172,355.277 1172,356.2647 " fill="none" id="SoundEngine2-&gt;SoundEngine2_Parameters" style="stroke: #A80036; stroke-width: 1.0;"/><polygon fill="#A80036" points="1172,356.2647,1176,347.2647,1172,351.2647,1168,347.2647,1172,356.2647" style="stroke: #A80036; stroke-width: 1.0;"/><!--link Component__Filter to Parameter1--><path d="M945.9705,325.5738 C979.0659,336.2094 1016.5201,348.9918 1032,357 C1044.6959,363.568 1057.688,372.5644 1068.4014,380.7114 " fill="none" id="Component__Filter-Parameter1" style="stroke: #A80036; stroke-width: 1.0; stroke-dasharray: 7.0,7.0;"/><polygon fill="#A80036" points="1072.5413,383.9032,1067.8561,375.2401,1068.5815,380.8503,1062.9714,381.5757,1072.5413,383.9032" style="stroke: #A80036; stroke-width: 1.0;"/><polygon fill="#A80036" points="941.1224,324.021,948.4734,330.5756,945.8841,325.5461,950.9136,322.9569,941.1224,324.021" style="stroke: #A80036; stroke-width: 1.0;"/><!--link Component__Filter to Parameter2--><path d="M905.0954,328.3686 C918.9366,343.8577 937.5591,364.6971 951.3066,380.0812 " fill="none" id="Component__Filter-Parameter2" style="stroke: #A80036; stroke-width: 1.0; stroke-dasharray: 7.0,7.0;"/><polygon fill="#A80036" points="954.6908,383.8683,951.6766,374.492,951.3592,380.14,945.7112,379.8226,954.6908,383.8683" style="stroke: #A80036; stroke-width: 1.0;"/><polygon fill="#A80036" points="901.4069,324.241,904.4211,333.6173,904.7385,327.9693,910.3865,328.2867,901.4069,324.241" style="stroke: #A80036; stroke-width: 1.0;"/><!--link Component__Filter to Parameter3--><path d="M876.7776,329.2283 C870.5441,344.2527 862.3487,364.0057 856.1339,378.985 " fill="none" id="Component__Filter-Parameter3" style="stroke: #A80036; stroke-width: 1.0; stroke-dasharray: 7.0,7.0;"/><polygon fill="#A80036" points="854.1079,383.8683,861.2516,377.0883,856.024,379.25,853.8623,374.0225,854.1079,383.8683" style="stroke: #A80036; stroke-width: 1.0;"/><polygon fill="#A80036" points="878.8468,324.241,871.7031,331.021,876.9307,328.8593,879.0924,334.0868,878.8468,324.241" style="stroke: #A80036; stroke-width: 1.0;"/><!--link Component__Amp to Parameter4--><path d="M724,329.6621 C724,344.5158 724,363.8483 724,378.6406 " fill="none" id="Component__Amp-Parameter4" style="stroke: #A80036; stroke-width: 1.0; stroke-dasharray: 7.0,7.0;"/><polygon fill="#A80036" points="724,383.8683,728,374.8683,724,378.8683,720,374.8683,724,383.8683" style="stroke: #A80036; stroke-width: 1.0;"/><polygon fill="#A80036" points="724,324.241,720,333.241,724,329.241,728,333.241,724,324.241" style="stroke: #A80036; stroke-width: 1.0;"/><!--link Component__Osc to Parameter5--><path d="M574.2765,329.2283 C579.8707,344.2527 587.2255,364.0057 592.8029,378.985 " fill="none" id="Component__Osc-Parameter5" style="stroke: #A80036; stroke-width: 1.0; stroke-dasharray: 7.0,7.0;"/><polygon fill="#A80036" points="594.6212,383.8683,595.2293,374.0382,592.8765,379.1826,587.7321,376.8298,594.6212,383.8683" style="stroke: #A80036; stroke-width: 1.0;"/><polygon fill="#A80036" points="572.4195,324.241,571.8114,334.0711,574.1642,328.9267,579.3086,331.2795,572.4195,324.241" style="stroke: #A80036; stroke-width: 1.0;"/><!--link Component__Osc to Parameter6--><path d="M546.3939,327.9428 C531.8644,343.463 512.1462,364.5256 497.6146,380.048 " fill="none" id="Component__Osc-Parameter6" style="stroke: #A80036; stroke-width: 1.0; stroke-dasharray: 7.0,7.0;"/><polygon fill="#A80036" points="494.0382,383.8683,503.1091,380.0318,497.4553,380.2182,497.2689,374.5644,494.0382,383.8683" style="stroke: #A80036; stroke-width: 1.0;"/><polygon fill="#A80036" points="549.8594,324.241,540.7885,328.0775,546.4423,327.8911,546.6287,333.5449,549.8594,324.241" style="stroke: #A80036; stroke-width: 1.0;"/><!--link Component__Osc to Parameter7--><path d="M504.4427,325.6632 C470.7648,336.2658 432.7631,348.9834 417,357 C404.121,363.5498 390.9196,372.5436 380.0265,380.6935 " fill="none" id="Component__Osc-Parameter7" style="stroke: #A80036; stroke-width: 1.0; stroke-dasharray: 7.0,7.0;"/><polygon fill="#A80036" points="375.8167,383.8867,385.4046,381.6346,379.8004,380.865,380.5699,375.2608,375.8167,383.8867" style="stroke: #A80036; stroke-width: 1.0;"/><polygon fill="#A80036" points="509.377,324.115,499.5923,322.993,504.6064,325.612,501.9874,330.6261,509.377,324.115" style="stroke: #A80036; stroke-width: 1.0;"/><!--link Component__GlobalEffect to Parameter8--><path d="M176.3768,234.7971 C186.3974,249.9896 199.7085,270.1709 209.71,285.3345 " fill="none" id="Component__GlobalEffect-Parameter8" style="stroke: #A80036; stroke-width: 1.0; stroke-dasharray: 7.0,7.0;"/><polygon fill="#A80036" points="212.7003,289.8683,211.084,280.153,209.9473,285.6945,204.4058,284.5578,212.7003,289.8683" style="stroke: #A80036; stroke-width: 1.0;"/><polygon fill="#A80036" points="173.3718,230.241,174.9881,239.9563,176.1248,234.4148,181.6663,235.5515,173.3718,230.241" style="stroke: #A80036; stroke-width: 1.0;"/><!--link Component__GlobalEffect to Parameter9--><path d="M147.8551,234.7971 C137.9961,249.9896 124.8997,270.1709 115.0595,285.3345 " fill="none" id="Component__GlobalEffect-Parameter9" style="stroke: #A80036; stroke-width: 1.0; stroke-dasharray: 7.0,7.0;"/><polygon fill="#A80036" points="112.1174,289.8683,120.3721,284.4961,114.8392,285.6741,113.6613,280.1412,112.1174,289.8683" style="stroke: #A80036; stroke-width: 1.0;"/><polygon fill="#A80036" points="150.8117,230.241,142.557,235.6132,148.0899,234.4352,149.2678,239.9681,150.8117,230.241" style="stroke: #A80036; stroke-width: 1.0;"/><!--link Component__GlobalAmp to Parameter10--><path d="M362.4529,235.2283 C360.0763,250.1221 356.9581,269.6625 354.5756,284.5932 " fill="none" id="Component__GlobalAmp-Parameter10" style="stroke: #A80036; stroke-width: 1.0; stroke-dasharray: 7.0,7.0;"/><polygon fill="#A80036" points="353.7338,289.8683,359.1022,281.6112,354.5218,284.9308,351.2022,280.3504,353.7338,289.8683" style="stroke: #A80036; stroke-width: 1.0;"/><polygon fill="#A80036" points="363.2488,230.241,357.8804,238.4981,362.4608,235.1785,365.7804,239.7589,363.2488,230.241" style="stroke: #A80036; stroke-width: 1.0;"/><!--link Component__Fm to Parameter11--><path d="M1366.1483,329.2283 C1370.3039,344.2527 1375.7675,364.0057 1379.9108,378.985 " fill="none" id="Component__Fm-Parameter11" style="stroke: #A80036; stroke-width: 1.0; stroke-dasharray: 7.0,7.0;"/><polygon fill="#A80036" points="1381.2614,383.8683,1382.7172,374.1276,1379.9284,379.0493,1375.0068,376.2604,1381.2614,383.8683" style="stroke: #A80036; stroke-width: 1.0;"/><polygon fill="#A80036" points="1364.7688,324.241,1363.3129,333.9817,1366.1018,329.06,1371.0234,331.8489,1364.7688,324.241" style="stroke: #A80036; stroke-width: 1.0;"/><!--link Component__Fm to Parameter12--><path d="M1336.6064,327.9428 C1319.1231,343.5945 1295.3434,364.883 1277.9644,380.4414 " fill="none" id="Component__Fm-Parameter12" style="stroke: #A80036; stroke-width: 1.0; stroke-dasharray: 7.0,7.0;"/><polygon fill="#A80036" points="1274.1365,383.8683,1283.51,380.8455,1277.8618,380.5333,1278.174,374.8851,1274.1365,383.8683" style="stroke: #A80036; stroke-width: 1.0;"/><polygon fill="#A80036" points="1340.7414,324.241,1331.3679,327.2638,1337.0161,327.576,1336.7039,333.2242,1340.7414,324.241" style="stroke: #A80036; stroke-width: 1.0;"/><!--link Component__Fm to Parameter13--><path d="M1397.8755,326.5177 C1414.6692,335.4434 1434.5381,346.3792 1452,357 C1464.2312,364.4393 1477.37,373.1826 1488.6117,380.9069 " fill="none" id="Component__Fm-Parameter13" style="stroke: #A80036; stroke-width: 1.0; stroke-dasharray: 7.0,7.0;"/><polygon fill="#A80036" points="1492.9816,383.9236,1487.8477,375.5186,1488.8669,381.0829,1483.3026,382.1021,1492.9816,383.9236" style="stroke: #A80036; stroke-width: 1.0;"/><polygon fill="#A80036" points="1393.225,324.0555,1399.3073,331.8018,1397.6439,326.3951,1403.0506,324.7316,1393.225,324.0555" style="stroke: #A80036; stroke-width: 1.0;"/><!--
@startuml

Object SoundSection #white-pink
Object Global #white-brown
Object Voice1 #white-yellow
Object Voice2 #white-yellow
Object Voice3 #white-yellow
Object Voice4 #white-yellow
Object Voice5 #white-yellow

Object SoundEngine1 #white-red
Object SoundEngine2 #white-red

package "SoundEngine1_Parameters"{
   Object Parameter1 #white-blue
   Object Parameter2 #white-blue
   Object Parameter3 #white-blue
   Object Parameter4 #white-blue
   Object Parameter5 #white-blue
   Object Parameter6 #white-blue
   Object Parameter7 #white-blue
}

package "Global_Parameters"{
   Object Parameter8 #white-blue
   Object Parameter9 #white-blue
   Object Parameter10 #white-blue
}

package "SoundEngine2_Parameters"{
   Object Parameter11 #white-blue
   Object Parameter12 #white-blue
   Object Parameter13 #white-blue
}

package "SoundEngine1_Components"{
   Object Component__Filter #white-green
   Object Component__Amp #white-green
   Object Component__Osc #white-green
}

package "SoundEngine2_Components"{
   Object Component__Fm #white-green
}

package "Global_Components"{
   Object Component__GlobalEffect #white-green
   Object Component__GlobalAmp #white-green
}

SoundSection - -> Global
SoundSection - -> Voice1
SoundSection - -> Voice2
SoundSection - -> Voice3
SoundSection - -> Voice4
SoundSection - -> Voice5

Global - -> Global_Components
Global - -> Global_Parameters

Voice1 - -> SoundEngine1
Voice2 - -> SoundEngine1
Voice3 - -> SoundEngine1
Voice4 - -> SoundEngine2
Voice5 - -> SoundEngine2

SoundEngine1 - -> SoundEngine1_Components
SoundEngine1 - -> SoundEngine1_Parameters
SoundEngine2 - -> SoundEngine2_Components
SoundEngine2 - -> SoundEngine2_Parameters

Component__Filter <..> Parameter1
Component__Filter <..> Parameter2
Component__Filter <..> Parameter3
Component__Amp <..> Parameter4
Component__Osc <..> Parameter5
Component__Osc <..> Parameter6
Component__Osc <..> Parameter7
Component__GlobalEffect <..> Parameter8
Component__GlobalEffect <..> Parameter9
Component__GlobalAmp <..> Parameter10
Component__Fm <..> Parameter11
Component__Fm <..> Parameter12
Component__Fm <..> Parameter13



@enduml

PlantUML version 1.2019.09(Mon Aug 26 18:19:51 CEST 2019)
(GPL source distribution)
Java Runtime: OpenJDK Runtime Environment
JVM: OpenJDK 64-Bit Server VM
Java Version: 11.0.6+10-post-Ubuntu-1ubuntu119.10.1
Operating System: Linux
OS Version: 5.3.0-46-generic
Default Encoding: UTF-8
Language: en
Country: US
--></g></svg>